<?xml version="1.0" encoding="utf-8"?>
<!-- Generator: Adobe Illustrator 27.1.1, SVG Export Plug-In . SVG Version: 6.00 Build 0)  -->
<svg version="1.1" id="Capa_1" xmlns="http://www.w3.org/2000/svg" xmlns:xlink="http://www.w3.org/1999/xlink" x="0px" y="0px"
	 viewBox="0 0 80 80" style="enable-background:new 0 0 80 80;" xml:space="preserve">
<style type="text/css">
	.st0{fill:none;stroke:#000000;stroke-width:4;stroke-linecap:round;stroke-linejoin:round;stroke-miterlimit:10;}
	.st1{fill:none;stroke:#000000;stroke-width:6;stroke-linejoin:round;stroke-miterlimit:10;}
</style>
<g>
	<path d="M67.1,71.8c-3.2-17.5-12.6-26.5-27.2-26.7c-11.8-0.1-26.3,9.3-27,26.8c-1.5,0-3,0-4.5,0c-1.9-10.7,6.8-23.3,20.8-30.1
		c-5.3-4.3-8.2-9.7-7.6-16.6c0.4-4.7,2.3-8.7,5.8-12c7.1-6.7,18.2-6.6,25.3,0.1c8.2,7.7,7.5,17.9-1.8,28.5
		c13.1,5.6,20.2,15.4,21.1,30C70.2,71.8,68.6,71.8,67.1,71.8z M40,13.2c-7.5,0-13.5,5.9-13.5,13.4c0,7.4,5.9,13.4,13.3,13.4
		c7.4,0.1,13.6-6,13.6-13.3C53.5,19.3,47.4,13.2,40,13.2z"/>
</g>
</svg>
