<?xml version="1.0" encoding="utf-8"?>
<!-- Generator: Adobe Illustrator 27.1.1, SVG Export Plug-In . SVG Version: 6.00 Build 0)  -->
<svg version="1.1" id="Capa_1" xmlns="http://www.w3.org/2000/svg" xmlns:xlink="http://www.w3.org/1999/xlink" x="0px" y="0px"
	 viewBox="0 0 80 80" style="enable-background:new 0 0 80 80;" xml:space="preserve">
<style type="text/css">
	.st0{fill:none;stroke:#000000;stroke-width:4;stroke-linecap:round;stroke-linejoin:round;stroke-miterlimit:10;}
</style>
<path d="M59.8,16.6c2,0,3.6,1.6,3.6,3.6v39.5c0,2-1.6,3.6-3.6,3.6H20.2c-2,0-3.6-1.6-3.6-3.6V20.2c0-2,1.6-3.6,3.6-3.6H59.8
	 M59.8,11.6H20.2c-4.8,0-8.6,3.9-8.6,8.6v39.5c0,4.8,3.9,8.6,8.6,8.6h39.5c4.8,0,8.6-3.9,8.6-8.6V20.2
	C68.4,15.5,64.5,11.6,59.8,11.6L59.8,11.6z"/>
<path d="M44.3,40l9.3-9.2c0.6-0.6,0.9-1.3,0.9-2.1s-0.3-1.6-0.9-2.1c-0.6-0.6-1.3-0.9-2.1-0.9c0,0,0,0,0,0c-0.8,0-1.5,0.3-2.1,0.9
	L40,35.8l-9.3-9.3c-1.2-1.2-3.1-1.2-4.2,0c-0.6,0.6-0.9,1.3-0.9,2.1s0.3,1.6,0.9,2.1l9.3,9.2l-9.3,9.2c-0.6,0.6-0.9,1.3-0.9,2.1
	s0.3,1.6,0.9,2.1c1.1,1.1,3.1,1.1,4.2,0l9.3-9.3l9.3,9.3c0.6,0.6,1.3,0.9,2.1,0.9c0.8,0,1.6-0.3,2.1-0.9c0.6-0.6,0.9-1.3,0.9-2.1
	s-0.3-1.6-0.9-2.1L44.3,40z"/>
</svg>
