<?xml version="1.0" encoding="utf-8"?>
<!-- Generator: Adobe Illustrator 27.1.1, SVG Export Plug-In . SVG Version: 6.00 Build 0)  -->
<svg version="1.1" id="Capa_1" xmlns="http://www.w3.org/2000/svg" xmlns:xlink="http://www.w3.org/1999/xlink" x="0px" y="0px"
	 viewBox="0 0 80 80" style="enable-background:new 0 0 80 80;" xml:space="preserve">
<style type="text/css">
	.st0{fill:none;stroke:#000000;stroke-width:4;stroke-linecap:round;stroke-linejoin:round;stroke-miterlimit:10;}
</style>
<g>
	<path d="M16.1,45.4c2.3-2.3,4.4-4.5,6.6-6.7c1.3-1.3,2.3-1.3,3.6,0c1.5,1.5,3,3.2,4.6,4.9c3.5-3.5,6.8-6.8,10.1-10.1
		c0.5-0.5,1-1,1.6-1.5c1-0.9,2.1-0.9,3.1,0c1.4,1.4,2.8,2.8,4.2,4.2c1,1.1,1,2.3,0.1,3.2c-1,0.9-2.1,0.8-3-0.1
		c-0.9-0.9-1.6-1.9-2.6-3.1c-3.2,3.3-6.1,6.2-8.9,9.1c-0.8,0.8-1.5,1.6-2.3,2.3c-1.5,1.5-2.5,1.5-4,0c-1.5-1.5-2.9-3-4.5-4.7
		c-3,3-5.8,5.8-8.5,8.7c-0.2,0.2-0.3,0.8-0.3,1.2c0,1.5,0,2.9,0,4.4c0,1.7,0.8,2.5,2.5,2.5c3.4,0,6.8,0,10.2,0
		c1.3,0,2.3,0.4,2.5,1.8c0.2,1.4-0.6,2.5-2.1,2.5c-3.9,0.1-7.7,0.1-11.6,0c-3.4-0.2-5.9-2.9-5.9-6.4c-0.1-13.1-0.1-26.2,0-39.4
		c0-4,2.9-6.4,7.1-6.5c9.9,0,19.9,0,29.8,0c2.8,0,5.5,0,8.3,0c4.4,0.1,7,2.7,7,7.1c0,2.6,0,5.1,0,7.7c0,1.7-0.8,2.7-2.2,2.7
		c-1.4,0-2.2-0.9-2.2-2.6c0-2.6,0-5.2,0-7.8c0-1.8-0.7-2.6-2.6-2.6c-12.8,0-25.6,0-38.4,0c-1.7,0-2.6,0.7-2.6,2.3
		c0,8.9,0,17.8,0,26.7C15.9,44.9,15.9,45,16.1,45.4z"/>
	<path d="M64.6,33.3c3.3,0.2,5.8,1.8,7.2,5c1.4,3.1,1,6.2-1.3,8.8c-2.3,2.5-4.7,4.8-7.1,7.2C58.2,59.4,53.1,64.5,48,69.5
		c-0.4,0.4-0.9,0.7-1.4,0.9c-3.3,0.7-6.6,1.4-10,2c-2.5,0.5-3.7-0.7-3.2-3.2c0.6-3.2,1.2-6.5,1.9-9.7c0.2-0.8,0.7-1.5,1.3-2.1
		C43.8,50.2,51,43,58.2,35.8C59.9,34.1,62,33.3,64.6,33.3z M57.1,43.2c-0.2,0.1-0.5,0.4-0.8,0.6C51.6,48.6,47,53.6,42,58
		c-3,2.7-2.9,6-3.7,9.4c3.8-0.5,7.5-0.7,9.9-4.1c0.7-1,1.7-1.7,2.5-2.6c4-4,8.1-8,12.2-12.1C60.9,46.8,59.1,45.1,57.1,43.2z
		 M66,45.3c1.5-1.2,2.5-2.6,2-4.7c-0.4-1.6-1.4-2.6-2.9-2.9c-2-0.4-3.5,0.4-4.6,1.9C62.4,41.6,64.2,43.5,66,45.3z"/>
	<path d="M37.6,26.8c0,3.7-2.9,6.5-6.6,6.5c-3.7,0-6.5-2.9-6.4-6.6c0-3.6,2.9-6.4,6.5-6.4C34.8,20.3,37.6,23.1,37.6,26.8z
		 M33.3,26.9c0-1.2-0.9-2.2-2.1-2.2c-1.3,0-2.2,0.8-2.2,2.1c0,1.3,0.8,2.2,2.1,2.2C32.3,29,33.2,28.1,33.3,26.9z"/>
</g>
</svg>
