<?xml version="1.0" encoding="utf-8"?>
<!-- Generator: Adobe Illustrator 27.1.1, SVG Export Plug-In . SVG Version: 6.00 Build 0)  -->
<svg version="1.1" id="Capa_1" xmlns="http://www.w3.org/2000/svg" xmlns:xlink="http://www.w3.org/1999/xlink" x="0px" y="0px"
	 viewBox="0 0 80 80" style="enable-background:new 0 0 80 80;" xml:space="preserve">
<g>
	<path d="M-66,29.1c0.3,0,0.5,0,0.7,0.1c0.9,0.2,1.3,0.7,1.2,1.6c-0.5,3-1.1,6-1.6,9c-0.6,3.2-1.1,6.5-1.7,9.7
		c-0.6,3.3-1.2,6.6-1.8,10c-0.7,3.8-1.3,7.7-2,11.5c-0.2,1-0.3,1.9-0.6,2.9c-0.1,0.4-0.5,0.7-0.9,0.9c-0.3,0.2-0.8,0.1-1.2,0.1
		c-13.4,0-26.8,0-40.2,0c-1.8,0-1.9,0-2.3-1.8c-0.6-3.3-1.2-6.7-1.8-10.1c-0.6-3.2-1.2-6.4-1.7-9.6c-0.5-2.8-1-5.7-1.5-8.5
		c-0.7-3.8-1.4-7.7-2.2-11.5c-0.2-0.9-0.3-1.9-0.4-2.8c-0.1-0.8,0.4-1.3,1.3-1.4c0.5,0,1.1,0,1.6,0c0.7,0,0.9-0.2,1-0.9
		c0.5-4.3,2.6-7.6,6.1-10c1.3-0.9,2.8-1.5,4.3-2.1c0.6-0.3,1-0.5,1.2-1.2c2.3-6.6,9.4-10.8,16.3-9.6c3.4,0.6,6.3,2.1,8.6,4.6
		c0.5,0.6,1,0.8,1.8,0.7c3.8-0.3,7.2,0.6,10.2,3c4.1,3.2,6.1,7.5,5.8,12.8C-65.7,27.3-65.9,28.2-66,29.1z M-66.6,31.6
		c-0.2,0-0.3-0.1-0.4-0.1c-5.5,0-11,0-16.4,0c-0.5,0-0.6,0.2-0.8,0.7c-1.7,5.1-6.6,8-12,6.8c-3.6-0.8-6.1-3.2-7.4-6.7
		c-0.2-0.6-0.5-0.8-1.1-0.8c-5.2,0-10.4,0-15.6,0c-0.3,0-0.6,0-0.9,0.1c0.1,0.7,0.2,1.4,0.3,2c0.8,4.2,1.6,8.4,2.3,12.7
		c0.6,3.2,1.1,6.3,1.7,9.5c0.9,5.1,1.8,10.3,2.7,15.4c0.2,0.9,0.4,1.3,1.5,1.3c12.6,0,25.1,0,37.7,0c0.9,0,1.3-0.3,1.4-1.2
		c0.4-2.1,0.8-4.2,1.1-6.3c0.5-2.9,1-5.7,1.5-8.6c0.6-3.2,1.2-6.4,1.7-9.6c0.6-3.4,1.2-6.8,1.8-10.2C-67.2,35-66.9,33.3-66.6,31.6z
		 M-68.7,29.3c1.1-3,0.8-5.7-0.2-8.3c-2.4-6.3-9.4-9.6-15.9-7.3c-3.8,1.3-6.3,3.9-7.7,7.7c-0.2,0.6,0.3,2.3,0.7,2.6
		c0.1,0.1,0.4,0.1,0.4,0c0.6-0.6,1.5-1.1,1.8-1.8c1.3-3.5,5.5-6.8,10.4-6c4.3,0.7,7.3,4.1,7.9,8C-71,26.2-69.4,27.3-68.7,29.3z
		 M-114.7,29.1c1.1-5.1,5-8,9-8.3c3.6-0.3,8.6,2.1,10,8.4c0.6-0.9,1.3-1.8,1.8-2.7c0.2-0.3,0.3-0.8,0.2-1.2
		c-2.2-5.3-7.5-7.8-12.3-7.5c-2.4,0.2-4.6,0.9-6.5,2.4c-3,2.2-4.7,5.2-5.2,8.9C-116.7,29.1-115.8,29.1-114.7,29.1z M-71.5,29.1
		c-2-3.1-4.5-5-7.8-5.7c-3.8-0.8-7.4,0-10.6,2.3c-3.5,2.6-5.1,6.1-4.9,10.4c0,0.2,0.2,0.7,0.3,0.7c0.8,0,1.6-0.1,2.3-0.3
		c0.2,0,0.2-0.7,0.3-1.1c0.1-0.5,0.2-0.9,0.3-1.4c0.5-3.4,3.5-6.8,6.8-7.6c3.4-0.9,6.3,0,8.9,2.2c0.2,0.2,0.5,0.4,0.8,0.4
		C-73.9,29.2-72.8,29.1-71.5,29.1z M-106,15.3c1,0.1,1.8,0.1,2.6,0.2c0.6,0.1,0.9-0.1,1.2-0.6c2.7-4.5,8.9-5.9,13.3-2.7
		c0.3,0.2,0.7,0.3,1,0.2c0.8-0.3,1.6-0.8,2.4-1.1c-2.2-2.7-6.6-4.4-11-3.6C-101,8.5-104.1,11-106,15.3z M-90.7,14.1
		c-2.4-2.3-8-1.2-9.3,1.9c1.9,1.2,3.7,2.4,5.4,3.5C-93.3,17.8-92,16-90.7,14.1z M-98.2,32.1c0-0.8,0.6-1.7-0.5-2.3
		c-2.4-1.2-3.9-3.2-4.8-5.7c-0.1-0.3-0.5-0.7-0.8-0.8c-0.7-0.1-1.4,0-2.4,0c0.3,0.8,0.4,1.4,0.7,2c0.8,1.6,1.5,3.4,3.5,4.1
		c0.2,0.1,0.4,0.2,0.4,0.3C-101.3,31.3-99.6,31.4-98.2,32.1z M-108.9,24.4c-1.3,0.3-3.2,2.9-3.2,4.6c1.8,0,3.7,0,5.5,0
		C-107.4,27.5-108.1,26-108.9,24.4z M-79.4,18.6c0,0.6-0.1,1.2,0,1.8c0.1,0.3,0.4,0.6,0.6,0.8c0.2,0.2,0.5,0.1,0.8,0.2
		c1.3,0.5,2.5,1,3.8,1.5C-74.5,20.9-77.6,18.4-79.4,18.6z M-81.7,20.6c-0.2-0.8-0.3-1.4-0.4-2.1c-0.6,0.2-1.3,0.4-1.9,0.7
		c-0.8,0.3-0.9,0.9-0.6,1.7C-83.7,20.8-82.8,20.7-81.7,20.6z M-87.7,34c-0.1-0.1-0.2-0.2-0.2-0.2c-0.7,0.2-1.4,0.3-1.2,1.7
		C-88.6,34.8-88.2,34.4-87.7,34z M-82.3,29.1c0.8,0,1.5,0,2.4,0C-81.6,28.3-81.7,28.3-82.3,29.1z"/>
	<path d="M-94,60.9c-4-0.1-7.8-0.8-11.1-3.2c-1.8-1.4-3.2-3.1-3.2-5.5c0-2.7,1.4-4.5,3.5-5.9c4.1-2.8,8.8-3.4,13.6-2.8
		c3.2,0.4,6.2,1.3,8.7,3.3c3.9,3.2,3.8,7.9-0.3,10.9C-86.1,60.1-89.9,60.8-94,60.9z M-93,45.6c-4.5,0-7.7,0.7-10.6,2.7
		c-1.2,0.9-2.2,2-2.3,3.6c-0.1,1.7,0.9,2.9,2.2,3.9c2,1.5,4.4,2.3,6.9,2.6c4.1,0.5,8.1,0.2,11.7-2c1.5-0.9,2.8-2,3-3.9
		c0.2-2-1-3.3-2.5-4.3C-87.5,46.3-90.7,45.6-93,45.6z"/>
</g>
<g>
	<path d="M11.2,45.4c2.6,11.4,13.6,21.9,27.9,22.2C54.2,68,65.8,57.4,68.8,45.1c-0.3,0.3-0.6,0.5-0.8,0.7c-3.3,3.1-7.4,4.9-11.6,6.2
		c-7.1,2.2-14.5,2.8-21.9,2c-3.1-0.3-6.2-1.1-9.4-1.6c-0.7-0.1-0.9-0.6-0.8-1.2c0.1-0.7,0.6-0.9,1.3-0.8c0.3,0,0.5,0.1,0.7,0.2
		c6.9,1.7,13.9,2,21,1.2c3.5-0.4,6.9-1.1,10.2-2.4C61.4,48,65,46.2,67.6,43c3.1-3.7,2.6-7.7-0.6-11c-2.5-2.6-5.5-4.2-8.8-5.4
		c-0.3-0.1-0.7-0.3-1-0.4c-0.6-0.2-0.8-0.7-0.6-1.2c0.2-0.6,0.7-0.8,1.3-0.6c1,0.3,2,0.7,2.9,1.1c2.8,1.3,5.4,2.8,7.6,5
		c2.3,2.4,3.6,5.3,3.4,8.7c-0.3,4.8-1.4,9.3-3.7,13.6c-2.7,5-6.5,9.1-11.4,12.1c-0.8,0.5-1.2,1-1.3,2c-0.2,2.9-1.8,4.8-4.5,5.9
		c-5,2-10.1,2.4-15.4,1.7c-2.7-0.3-5.3-0.9-7.7-2.2c-2.3-1.2-3.5-3.1-3.6-5.7c0-0.6-0.2-1-0.7-1.4c-4.3-2.6-7.9-6-10.6-10.3
		c-2.2-3.4-3.7-7.1-4.3-11.1c-0.4-2.3-0.5-4.6-0.5-6.9c0-2.6,1.5-4.7,3.3-6.5c2.9-2.9,6.5-4.7,10.3-6.1c7.6-2.7,15.5-3.3,23.5-2.6
		c2.5,0.2,5,0.7,7.6,1.1c0.9,0.2,1.3,0.6,1.1,1.4C53.6,25,53,25,52.3,24.8c-4.9-1.1-9.8-1.5-14.8-1.3c-5.8,0.2-11.4,1.2-16.8,3.4
		c-3.1,1.3-6,2.9-8.3,5.5c-3.3,3.8-3.1,8,0.5,11.6c2.1,2.1,4.7,3.5,7.4,4.7c0.2,0.1,0.3,0.1,0.5,0.2c0.6,0.3,0.9,0.8,0.7,1.4
		c-0.3,0.7-0.9,0.8-1.5,0.5c-1.2-0.5-2.4-1-3.4-1.7C14.8,47.9,12.9,46.6,11.2,45.4z M26.4,66.8c0.3,1.9,1.2,3.1,2.7,3.8
		c2.1,1,4.3,1.5,6.6,1.8c4.5,0.7,8.9,0.3,13.3-1.1c1-0.3,1.9-0.8,2.8-1.4c1-0.7,1.5-1.8,1.7-3.2C44.4,70.7,35.5,70.7,26.4,66.8z"/>
	<path d="M15.1,39.9c1.2-1.9,2.8-3.3,4.6-4.5c2.7-1.7,5.7-2.9,8.8-3.6c4.4-1.1,8.9-1.5,13.5-1.3c5.4,0.2,10.6,1.3,15.5,3.5
		c3.1,1.4,5.6,3.4,7.1,5.8c0.9-0.7,1.1-2.3,0.3-3.5c-1.2-1.9-3-3.2-4.9-4.2c-4.7-2.5-9.9-3.6-15.1-4.1c-4.6-0.5-9.2-0.2-13.7,0.5
		c-3,0.5-6,1.2-8.9,2.4c-0.4,0.2-0.9,0.4-1.4,0.5c-0.5,0.1-1,0-1-0.6c0-0.4,0.1-1,0.4-1.2c0.7-0.5,1.6-0.8,2.4-1.1
		c4.5-1.6,9.1-2.4,13.9-2.7c3.8-0.2,7.5-0.1,11.3,0.4c5.6,0.8,11,2.2,15.6,5.6c1.2,0.9,2.4,2,3.2,3.3c1.5,2.4,1.1,4.8-1,7
		c-1.9,2-4.1,3.3-6.6,4.4c-4.7,2.1-9.8,3-14.9,3.5c-3.7,0.3-7.4,0.2-11.1-0.3c-4.9-0.6-9.6-1.7-14-4c-2.3-1.2-4.5-2.6-5.9-4.9
		c-1.4-2.2-1.3-4.6,0.4-6.6c0.6-0.8,1.4-1.4,2.1-2.1c0.6-0.6,1.2-0.5,1.6,0c0.5,0.6,0.2,1.1-0.3,1.6c-0.9,0.9-1.7,1.8-2.4,2.8
		C14,37.6,14.3,38.7,15.1,39.9z M40.1,48c4.2,0.1,8.5-0.4,12.7-1.5c3.5-0.9,6.8-2.2,9.8-4.4c0.6-0.4,0.6-0.8,0.2-1.3
		c-1-1.6-2.4-2.8-4-3.7c-3.9-2.4-8.3-3.6-12.7-4.2c-4.5-0.6-9.1-0.6-13.6,0.2c-4.1,0.7-7.9,1.8-11.5,4c-1.6,1-3.1,2.1-4,3.8
		c-0.3,0.5-0.2,0.9,0.2,1.2c2.2,1.6,4.6,2.8,7.2,3.6C29.4,47.3,34.6,48.1,40.1,48z"/>
	<path d="M38.1,15.2c0.3-0.8,0.5-1.6,0.9-2.3c0.5-0.8,0.5-1.5,0-2.3c-1-1.5-1-3.1,0-4.7c0.2-0.4,0.4-0.8,0.4-1.3
		c0.1-0.6,0.5-1,1.1-0.9c0.6,0.1,1,0.5,0.9,1.1c-0.1,0.7-0.3,1.5-0.7,2.1c-0.5,0.9-0.5,1.6,0,2.5c1,1.5,1,3.1,0,4.6
		c-0.5,0.8-0.4,1.5,0,2.4c0.3,0.7,0.6,1.4,0.7,2.1c0.1,0.6-0.3,1.1-0.9,1.2c-0.6,0-0.9-0.3-1.1-1c-0.1-0.5-0.4-1-0.6-1.6
		C38.6,16.6,38.4,16,38.1,15.2z"/>
	<path d="M49.4,11.8c-0.2,0.7-0.4,1.4-0.7,1.9c-0.7,1.1-0.6,2,0,3.1c0.3,0.6,0.5,1.3,0.5,2c0,0.3-0.5,0.8-0.9,0.9
		c-0.3,0.1-0.9-0.3-1-0.6c-0.4-0.7-0.6-1.5-0.9-2.3c-0.5-1.3-0.4-2.6,0.4-3.7c0.6-0.9,0.5-1.7,0-2.6c-0.4-0.7-0.5-1.5-0.6-2.2
		c0-0.3,0.5-0.8,0.8-0.9c0.3-0.1,0.9,0.3,1.1,0.6c0.5,1,0.8,2,1.2,3c0.1,0.3,0.1,0.6,0.1,0.8C49.3,11.8,49.3,11.8,49.4,11.8z"/>
	<path d="M30.3,15.3c0.3-0.8,0.5-1.6,0.9-2.3c0.5-0.9,0.5-1.6,0-2.5c-0.4-0.7-0.6-1.5-0.6-2.2c0-0.3,0.5-0.8,0.8-0.9
		c0.3-0.1,0.9,0.3,1,0.6c0.4,0.8,0.7,1.7,1,2.5c0.5,1.1,0.4,2.3-0.3,3.3c-0.8,1.2-0.8,2.2,0,3.3c0.3,0.4,0.4,0.9,0.5,1.3
		c0.2,0.7-0.3,1.4-0.9,1.5c-0.6,0.1-1-0.3-1.2-1.1c-0.1-0.4-0.3-0.7-0.4-1.1C30.9,16.9,30.6,16.1,30.3,15.3z"/>
	<path d="M37.8,36.9c0.2-0.1,0.2-0.1,0.2-0.1c0.8-0.9,1.3-1,1.8-0.6c0.5,0.4,0.4,1.2-0.3,2c-0.1,0.1-0.3,0.2-0.4,0.3
		c-0.5,0.4-0.9,0.9-1.2,1.6c-0.4,1.3-1.4,2.1-2.6,2.7c-2.6,1.2-5.3,1.2-8,0.7c-1.3-0.2-2.7-0.7-3.9-1.3c-1.1-0.5-1.7-1.6-1.4-2.9
		c0.2-1.2,1-2,2.2-2.3c1.9-0.5,3.7-0.9,5.6-1.3c1-0.2,1.9-0.5,2.9-0.6C34.8,34.9,36.5,35.3,37.8,36.9z M30.1,41.6c0.5,0,1,0,1.5,0
		c1.5-0.2,2.9-0.3,4-1.5c0.9-0.9,0.7-2.1-0.4-2.6c-1.2-0.6-2.4-0.3-3.6-0.1c-1.4,0.3-2.7,0.7-4.1,1c-0.9,0.2-1.9,0.4-2.8,0.7
		c-0.7,0.3-0.8,0.9-0.1,1.4c0.2,0.2,0.5,0.3,0.7,0.4C27,41.3,30.1,41.7,30.1,41.6z"/>
	<path d="M43.5,39.4c-1-1-1-2.1-0.2-3.2c1.4-1.8,5.1-1.8,6.5,0c1,1.3,0.7,2.9-0.8,3.7C48.4,40.3,44.4,40.2,43.5,39.4z M46.7,38.5
		c0.3-0.1,0.7-0.1,1-0.2c0.2-0.1,0.4-0.4,0.6-0.5c-0.2-0.2-0.3-0.5-0.6-0.6c-0.6-0.1-1.2-0.2-1.7-0.1c-0.4,0.1-0.7,0.4-1.1,0.6
		c0.4,0.2,0.7,0.5,1.1,0.7C46.2,38.5,46.5,38.5,46.7,38.5z"/>
	<path d="M55.8,43.2c-1.7-0.1-2.9-0.4-3.7-1.6c-0.7-1-0.6-1.9,0.2-2.8c1.4-1.8,5.3-1.7,6.6,0.1c1.1,1.5,0.3,3.1-1.2,3.8
		C56.9,43.1,56.2,43.1,55.8,43.2z M55.3,41.3c0.7-0.2,1.1-0.3,1.6-0.5c0.5-0.2,0.5-0.6,0-0.8c-0.4-0.2-0.9-0.4-1.4-0.3
		c-0.6,0.1-1.1,0.4-1.7,0.7C54.3,40.7,54.8,41,55.3,41.3z"/>
	<path d="M39.7,45.8c-1.7-1.1-1.6-3.3,0.2-4.3c1.6-0.9,3.3-0.9,4.9,0c0.9,0.5,1.5,1.4,1.4,2.5c-0.2,1.3-1.1,1.9-2.2,2.3
		c-0.5,0.2-1.1,0.2-1.6,0.3C42.3,46.7,40.4,46.3,39.7,45.8z M40.6,43.7c0.8,1.1,2.6,1.1,3.5,0.1C43.2,42.7,41.6,42.7,40.6,43.7z"/>
</g>
<g>
	<path d="M181.2,34.8c-0.4-1.4-0.9-2.7-1-4.1c-0.4-4.3,3-8,7.3-8.2c2.6-0.1,2.6-0.1,2.9-2.7c0.6-4.3,2-8.4,4.3-12.1
		c2.4-3.8,5.6-6.5,10-7.7c0.3-0.1,0.6-0.2,0.9-0.2c1.6-0.1,2.4,0.8,1.9,2.4c-0.2,0.8-0.5,1.6-0.6,2.5c-0.5,3.9,1.4,6.7,4.5,8.8
		c0.9,0.6,1.8,1,2.7,1.5c2.3,1.3,3.6,3.3,4.1,5.8c0.1,0.3,0.2,0.6,0.2,0.9c0,0.6,0.3,0.7,0.8,0.7c1.3,0.1,2.6,0.2,3.8,0.5
		c3,0.8,5.3,4.1,5.1,7.5c-0.1,1.1-0.5,2.1-0.8,3.2c-0.1,0.4-0.3,0.7-0.5,1.1c2.1-0.1,3.9,0.5,5.3,1.9c1,1,1.6,2.2,2.4,3.3
		c0.5,0.6,1,1.3,1.6,1.9c2.6,2.3,3.5,5.2,2.7,8.5c-0.7,2.9-3.1,5.3-6.4,5.5c-0.9,0.1-1.2,0.3-1.3,1.2c-0.4,2.7-0.8,5.4-1.2,8.1
		c-0.7,4.2-1.4,8.3-2.1,12.5c-0.3,1.6-0.4,3.1-0.7,4.7c-0.1,0.6-0.1,1.3-0.4,1.8c-0.2,0.4-0.7,0.7-1.2,0.9c-0.3,0.1-0.7,0-1,0
		c-13.5,0-27,0-40.6,0c-2.3,0-2.3-0.5-2.7-2.3c-0.5-2.8-0.8-5.7-1.3-8.6c-0.7-4.2-1.4-8.3-2.1-12.5c-0.3-1.6-0.5-3.2-0.7-4.9
		c-0.1-0.7-0.4-0.9-1-0.9c-4.5-0.1-7.4-4.6-6.9-8.8c0.3-1.9,1.1-3.5,2.4-4.9c1-1.1,1.9-2.2,2.7-3.5c1.6-2.5,3.7-4,6.7-4.1
		C181.1,34.8,181.2,34.8,181.2,34.8z M215.1,53.3c-1.5,1.7-3.3,2.7-5.5,2.7c-2.3,0-4-1.1-5.5-2.8c-1.5,1.7-3.3,2.7-5.5,2.8
		c-2.3,0-4.1-1.1-5.6-2.8c-1.5,1.7-3.3,2.8-5.6,2.8c-2.3,0-4-1.1-5.6-2.8c-0.4,0.4-0.6,0.9-1,1.1c-0.8,0.4-0.8,1-0.6,1.8
		c0.3,1.7,0.6,3.4,0.8,5.1c0.2,1.2,0.4,2.5,0.6,3.7c0.5,3.1,1,6.2,1.5,9.2c0.4,2.6,0.8,5.2,1.3,7.8c13.2,0,26.3,0,39.5,0
		c0.5-2.9,0.9-5.7,1.3-8.5c0.2-1.4,0.4-2.7,0.6-4.1c0.4-2.4,0.8-4.8,1.2-7.2c0.3-1.9,0.6-3.7,0.9-5.6c0.1-0.6,0.2-1.3-0.1-1.8
		c-0.3-0.6-1-0.9-1.5-1.4C223.2,56.8,218.6,57.1,215.1,53.3z M204.1,38.1c-7.6,0-15.2,0-22.8,0c-1.9,0-3.2,0.9-4.2,2.4
		c-0.9,1.4-1.8,2.9-3.1,4c-1.7,1.6-2.1,4.2-1.1,6.1c0.8,1.5,2.8,2.8,4.8,1.8c1.7-0.9,2.3-2.3,2.4-4c0-0.9,0.5-1.5,1.3-1.7
		c0.8-0.2,1.5,0.1,1.8,0.8c0.2,0.4,0.3,1,0.4,1.4c0.2,0.7,0.3,1.4,0.6,2c0.9,1.5,2.8,2.4,4.6,1.4c1.7-0.9,2.3-2.3,2.4-4.1
		c0-0.9,0.6-1.6,1.4-1.7c0.9-0.1,1.6,0.4,1.8,1.4c0.1,0.5,0.1,1.1,0.2,1.6c0.3,1.5,1.3,2.6,2.7,3c1.3,0.4,2.5,0.1,3.5-0.9
		c1-1,1.3-2.2,1.5-3.6c0.1-1,0.7-1.5,1.6-1.5c0.9,0,1.5,0.6,1.7,1.5c0.1,0.5,0.1,0.9,0.2,1.4c0.3,1.5,1.7,3,3,3.2
		c1.8,0.3,3.4-0.5,4.1-2.2c0.3-0.8,0.4-1.6,0.6-2.4c0.2-1,0.9-1.6,1.9-1.5c0.8,0.1,1.3,0.7,1.4,1.7c0.1,0.6,0.1,1.2,0.4,1.7
		c0.5,1.3,1.5,2.4,3,2.6c1.7,0.3,3-0.4,3.8-1.9c0.4-0.8,0.6-1.8,0.8-2.8c0.3-1,0.9-1.5,1.8-1.4c0.8,0.1,1.4,0.8,1.5,1.7
		c0.1,0.6,0.1,1.2,0.3,1.8c0.9,2.3,2.9,3.1,4.7,2.5c3.3-1.2,3.4-5.8,1.4-7.8c-1.3-1.3-2.4-2.8-3.3-4.3c-1-1.6-2.3-2.5-4.2-2.5
		C219.2,38.1,211.6,38.1,204.1,38.1z M204,25.8C204,25.8,204,25.8,204,25.8c-2.2,0-4.4,0-6.7,0c-3.4,0-6.8,0-10.2,0.1
		c-2.1,0.1-3.7,2.1-3.9,4.1c-0.1,2.7,1.9,4.9,4.6,4.9c7.3,0,14.6,0,21.9,0c3.5,0,6.9,0,10.4,0c3.2,0,5.3-3.2,4.2-6.1
		c-0.6-1.5-2-2.9-4.6-2.9C214.6,25.9,209.3,25.8,204,25.8z M203.6,3.9c-0.5,0.2-0.8,0.3-1.1,0.5c-2.4,1.4-4.1,3.3-5.5,5.7
		c-1.6,2.7-2.5,5.6-3.2,8.6c-0.3,1.2-0.4,2.4-0.7,3.7c7.4,0,14.6,0,21.7,0c0.1-2.1-0.9-3.8-2.7-4.7c-0.6-0.3-1.2-0.6-1.7-1
		c-2.8-1.7-5.1-3.9-6.2-7C203.6,8,203.3,6.1,203.6,3.9z"/>
</g>
<g>
	<path d="M264,37.1c-2.5-0.4-4.7-1.3-6.5-3c-2.6-2.6-3.7-5.8-3-9.4c0.8-4.3,3.5-7,7.9-8c3.9-0.9,7.4,0,10,3c1,1.2,1.7,2.7,2.3,4.2
		c0.3,0.7,0.5,0.8,1.1,0.8c4,0,8,0,12.1,0c3.3,0,6.6,0,10,0c1-2.4,2-4.9,2.9-7.3c1-2.4,1.9-4.8,2.9-7.2c0.4-1,1.5-1.1,2.4-1.4
		c3.6-1.2,7.2-2.4,10.8-3.5c1.1-0.4,2.2-0.8,3.3-1.2c1-0.4,1.9,0,2.3,0.9c0.4,0.9-0.1,1.8-1.1,2.2c-2.5,0.8-4.9,1.6-7.4,2.5
		c-2.4,0.8-4.8,1.5-7.1,2.4c-0.5,0.2-0.9,1.1-1.1,1.7c-1.4,3.5-2.8,7.1-4.3,10.8c0.4,0,0.7,0.1,1,0.1c1.6,0,3.2,0,4.7,0
		c1.4,0,2,0.7,1.9,2c-0.3,3.3-0.7,6.6-1.1,9.9c-0.3,2.3-0.5,4.6-0.7,6.9c-0.4,4-0.7,8.1-1.1,12.1c-0.2,2.1-0.3,4.2-0.5,6.3
		c-0.3,2.9-0.6,5.7-0.9,8.6c-0.3,2.9-0.4,5.8-0.7,8.7c-0.2,2.9-0.5,5.9-0.8,8.8c-0.1,1.4-0.7,1.8-2.1,1.8c-10.3,0-20.5,0-30.8,0
		c-1.5,0-1.9-0.3-2-1.8c-0.3-3.7-0.6-7.4-0.9-11.1c-0.3-3.8-0.7-7.7-1-11.5c-0.3-3.5-0.6-7-0.9-10.5c-0.3-3.8-0.6-7.6-1-11.3
		C264.4,41.4,264.2,39.3,264,37.1z M268,47.8c0.1,1,0.3,2,0.4,2.9c0.3,3.8,0.6,7.6,0.9,11.4c0.2,3.1,0.5,6.2,0.7,9.4
		c0.1,1.3,0.2,2.6,0.4,4c0.3,3.3,0.6,6.7,0.8,10c0.1,0.9,0.3,1.2,1.2,1.1c8.9,0,17.7,0,26.6,0c0.2,0,0.4,0.1,0.5,0
		c0.2-0.2,0.6-0.4,0.6-0.6c0.3-3.4,0.7-6.9,0.9-10.3c0.4-4.2,0.7-8.4,1-12.6c0.1-1.3,0.2-2.6,0.3-4c0.3-3.5,0.6-7.1,0.9-10.6
		c0-0.5-0.2-0.7-0.7-0.8c-1.2-0.2-2.4-0.4-3.6-0.7c-3.5-0.7-7-0.7-10.6-0.2c-1.1,0.1-2.1,0.5-3.1,0.7c-1.5,0.3-3.1,0.5-4.6,0.7
		c-3.3,0.4-6.6,0.5-9.8,0C270.1,48.1,269.2,48,268,47.8z M271.6,45.2c0-0.6,0-0.9,0-1.3c0-2.2,0-4.3,0-6.5c0-1.5,0.5-2,2-2
		c3.2,0,6.4,0,9.6,0c1.7,0,2.1,0.4,2.1,2.1c0,2,0,3.9,0,5.9c0,0.2,0.2,0.7,0.3,0.7c0.3,0,0.7-0.1,0.9-0.3c0.2-0.2,0.3-0.5,0.4-0.8
		c1-2.5,2-5,3-7.5c0.5-1.3,1.2-1.6,2.6-1.2c0.2,0.1,0.5,0.2,0.7,0.2c0.3,0,0.7-0.1,0.7-0.3c0.9-2.1,1.7-4.2,2.5-6.3
		c-10.1,0-20,0-30.1,0c0.5,5.5,0.9,10.9,1.4,16.4C269,44.6,270.2,44.9,271.6,45.2z M263.8,33.8c-0.1-0.8-0.2-1.4-0.2-2.1
		c-0.1-1.8-0.3-3.6-0.3-5.4c0-1.4,0.5-1.6,1.9-1.7c1.8,0,3.6,0,5.4,0c0.3,0,0.7,0,1-0.1c-0.9-3.3-3.7-5.6-8.2-4.9
		c-3,0.5-5.4,2.7-5.7,5.9C257.3,30,259.2,32.7,263.8,33.8z M305.7,27.9c-1.9,0-3.6,0-5.2,0c-0.2,0-0.5,0.3-0.6,0.5
		c-0.6,1.4-1.2,2.8-1.7,4.3c-0.4,1.1-0.8,2.2-1.3,3.4c1.8,0.7,3.5,1.4,5.1,2.1c1,0.4,1.3,1.3,0.9,2.3c-0.3,0.8-0.7,1.6-1,2.4
		c-0.2,0.4-0.3,0.9-0.4,1.4c0.6,0.2,1.1,0.3,1.6,0.4c0.6,0.2,0.9-0.1,1-0.7c0.4-3.7,0.8-7.5,1.2-11.2
		C305.3,31.2,305.5,29.6,305.7,27.9z M274.8,45.5c2.3-0.2,4.6-0.3,6.8-0.5c0.2,0,0.5-0.5,0.5-0.7c0-1.6,0-3.3,0-4.9
		c0-0.6-0.2-0.8-0.8-0.8c-1.4,0-2.8,0-4.3,0c-0.7,0-1.5,0-2.3,0C274.8,40.9,274.8,43.1,274.8,45.5z M290.2,43.4c0.5,0,0.9,0,1.2,0
		c1.7,0,3.4,0,5.1,0c0.5,0,1.2,0.2,1.5,0c0.4-0.3,0.5-1,0.8-1.5c0.1-0.2,0.1-0.5,0.3-0.7c0.3-0.5,0.2-0.8-0.4-1.1
		c-2-0.8-4-1.6-6.1-2.5C291.8,39.6,291,41.4,290.2,43.4z"/>
	<path d="M283.7,54.8c1.8,0,3.2,1.5,3.1,3.2c0,1.8-1.4,3.2-3.1,3.1c-2-0.1-3.1-1.2-3.1-3.2C280.5,56.2,281.7,54.9,283.7,54.8z"/>
	<path d="M292.3,67.5c-1.3,0-2.3-1-2.3-2.4c0-1.3,1.1-2.3,2.4-2.3c1.3,0,2.3,1,2.3,2.4C294.7,66.6,293.7,67.5,292.3,67.5z"/>
	<path d="M276.4,66.7c-1.3,0-2.3-1.1-2.2-2.4c0.1-1.3,1.1-2.3,2.4-2.3c1.4,0,2.4,1.1,2.3,2.4C278.8,65.5,278.1,66.8,276.4,66.7z"/>
	<path d="M297.1,54.8c0,1.4-0.8,2.3-2.2,2.3c-1.4,0-2.4-0.9-2.4-2.3c0-1.3,1-2.3,2.4-2.3C296.1,52.5,297.1,53.4,297.1,54.8z"/>
	<path d="M290,51.7c0,0.9-0.7,1.5-1.6,1.5c-0.9,0-1.5-0.7-1.5-1.6c0-0.9,0.7-1.6,1.6-1.6C289.4,50.1,290,50.8,290,51.7z"/>
	<path d="M299.5,70.7c0,0.9-0.7,1.5-1.6,1.5c-0.9,0-1.6-0.7-1.5-1.7c0-0.9,0.8-1.5,1.6-1.5C298.8,69.2,299.5,69.9,299.5,70.7z"/>
</g>
<g>
	<path d="M394,44.2c0,14.1-11.5,25.6-25.6,25.5c-14.1,0-25.5-11.4-25.5-25.6c0-14.1,11.5-25.5,25.6-25.5
		C382.6,18.7,394,30.2,394,44.2z M351.5,29.4c-7.6,8.4-8,22.9,2,31.7c9.5,8.4,22.8,6.7,29.5,0.2c-2-2-3.9-4-5.9-6
		c-2,1.6-4.5,2.1-7.2,2.2c0,0.4,0,0.8,0,1.1c0,1.3,0,2.5,0,3.8c0,0.9-0.6,1.3-1.4,1.4c-0.8,0.1-1.4-0.4-1.5-1.2c-0.1-0.3,0-0.7,0-1
		c0-1.3,0-2.6,0-4c-0.8-0.1-1.4-0.1-2-0.2c-3.3-0.5-6-1.8-7.4-5.1c-0.7-1.8-1-3.6-1-5.5c0-1.2,0-2.4,1.6-2.6
		c-0.1-0.3-0.2-0.4-0.2-0.5c-1.3-2.7-1.8-5.4-1-8.4c0-0.2-0.1-0.4-0.2-0.6C355,32.9,353.3,31.2,351.5,29.4z M385.4,59.1
		c5.2-6.5,7.1-13.6,4.6-21.5c-2.9-9.2-9.5-14.6-19.1-15.8c-6.5-0.8-12.2,1.1-17.3,5.4c2.2,2.2,4.4,4.3,6.4,6.4
		c0.8,0.9,1.7,1.2,2.8,1.2c0-0.8-0.1-1.5,0-2.2c0.3-3.1,2.1-5.4,4.4-7.4c0.9-0.8,1.6-0.8,2.5,0c2.8,2.6,4.8,5.5,4.3,9.5
		c1.5-0.1,2.9-0.2,4.3-0.2c1.4,0,1.9,0.5,2,1.9c0.2,2.6-0.2,5.2-1.6,7.6c1.2,0.2,1.6,1,1.6,2.1c0.1,2.1-0.1,4.1-0.9,6.1
		c-0.1,0.2-0.1,0.7,0,0.8C381.3,55,383.3,57,385.4,59.1z M377.3,47.2c-4.7-0.2-7.5,2.4-7.2,7.2C375,54.5,377.3,51.9,377.3,47.2z
		 M370.1,44.9c4.2,0.3,7.5-2.1,7.1-7.1C372.9,37.2,369.5,40.5,370.1,44.9z M366.8,44.8c0.3-4.7-2.8-7.7-7.2-7
		C359.4,42.4,362.4,45.3,366.8,44.8z M359.6,47.1c-0.4,4.5,3.3,8.1,7.2,7.1C367,49.7,364.6,47,359.6,47.1z M368.4,38.5
		c3.2-3,3.8-6.7,0-10.2C364.9,31.5,364.9,35.3,368.4,38.5z"/>
</g>
<g>
	<path d="M412.4,41c-1.1,0-2.3,0-3.4,0c-0.4-3.9,0.6-7.4,3.2-10.3c2.5-2.8,5.7-4.2,9.5-4.3c1.6,0,3.2,0,4.8,0c0.5,0,0.7-0.1,0.9-0.6
		c1.3-3.9,4.5-6.2,8.7-6.3c0.6,0,1.2,0,1.8,0c0,1.2,0,2.4,0,3.6c-2.1,0-4.2,0-5.8,1.7c-0.4,0.4-0.7,0.9-1.2,1.6c1.8,0,3.3,0,4.8,0
		c2,0,4,0.4,5.8,1.2c4.9,2.2,8,7.9,7.2,13.3c-1.1,0-2.2,0-3.5,0c0,0.4,0,0.7-0.1,1c-0.6,11-6.1,18.8-15.8,23.8
		c-0.3,0.2-0.9,0.1-1.2-0.1c-9.7-5.1-15.2-12.9-15.7-24c0-0.1,0-0.2,0-0.3C412.5,41.2,412.5,41.2,412.4,41z M441.5,41.1
		c-8.5,0-16.9,0-25.3,0c0,0.2-0.1,0.3-0.1,0.4c0.3,9,4.6,15.7,12.2,20.2c0.2,0.1,0.7,0.1,1-0.1c4.6-2.7,8.1-6.4,10.3-11.3
		C441,47.3,441.5,44.3,441.5,41.1z M445,37.3c-0.1-0.4-0.2-0.7-0.3-1c-1.2-3.8-4.6-6.2-8.8-6.2c-4.7,0-9.4-0.1-14.1,0
		c-1.4,0-2.9,0.4-4.2,0.9c-2.6,1.2-4.2,3.3-4.9,6.2C423.5,37.3,434.2,37.3,445,37.3z"/>
	<path d="M423.6,44.1c1.1,4.9,3.6,8.7,7.8,11.5c-0.8,1-1.5,1.9-2.2,2.9c-4.8-3.3-7.8-7.7-9.1-13.3C421.3,44.8,422.4,44.5,423.6,44.1
		z"/>
</g>
<g>
	<path d="M472.2,51.2c0-3.2,0-6.4,0-9.6c0.1-3.7,1.4-6.8,4.1-9.3c1.8-1.7,2.1-3.7,1.9-6c0-0.2-0.3-0.5-0.5-0.7
		c-1.8-1.1-2.7-2.9-2.3-4.9c0.4-2,1.9-3.4,4-3.6c1.5-0.1,3.1-0.1,4.6-0.1c2.6,0,5.1,0,7.7,0c3.5,0.1,5.7,3.2,4.3,6.3
		c-0.4,0.9-1.3,1.5-2,2.2c-0.3,0.3-0.6,0.7-0.6,1c-0.2,2.3,0.4,4.2,2.2,5.9c2.8,2.7,4,6.1,3.9,10c0,6.1,0,12.2,0,18.3
		c0,4.8-3.2,8-8,8c-3.8,0-7.7,0-11.5,0c-4.6,0-7.8-3.2-7.8-7.8C472.1,57.7,472.2,54.4,472.2,51.2C472.2,51.2,472.2,51.2,472.2,51.2z
		 M496.5,50.5c-4.3,0.3-8.1-0.8-11.6-3.1c-1.2-0.8-2.5-1.4-3.8-1.9c-1.9-0.7-3.8-1-5.9-0.8c0,0.2-0.1,0.4-0.1,0.5c0,5.3,0,10.7,0,16
		c0,2.6,2,4.4,4.5,4.4c4,0,8,0,12,0c2.9,0,4.8-1.9,4.8-4.8c0-2.2,0-4.4,0-6.6C496.5,53,496.5,51.8,496.5,50.5z M475.2,41.4
		c0.1,0.1,0.2,0.1,0.2,0.1c0.2,0,0.3,0,0.5,0c3.5-0.1,6.7,0.7,9.7,2.6c1.3,0.8,2.6,1.6,4,2.2c2.2,0.9,4.5,1.3,6.9,1
		c0-1.5-0.1-2.9,0-4.3c0.2-3.7-1.1-6.7-3.8-9.2c-1.7-1.6-2.4-3.6-2.4-5.9c0-0.6,0-1.2,0-1.8c-3.1,0-6,0-9.1,0c0,0.5,0,1,0,1.5
		c0.1,2.5-0.8,4.7-2.6,6.5c-0.6,0.6-1.1,1.2-1.6,1.9C475.9,37.7,475.3,39.5,475.2,41.4z M485.8,23.1c1.9,0,3.9,0,5.8,0
		c1.1,0,1.7-0.6,1.7-1.5c0-0.9-0.6-1.5-1.7-1.5c-3.9,0-7.8,0-11.8,0c-1,0-1.7,0.6-1.7,1.5c0,0.9,0.7,1.5,1.7,1.5
		C481.9,23.2,483.9,23.1,485.8,23.1z"/>
</g>
<g>
	<path d="M557.4,43.4c0.5,1.1,1.4,1.6,2.5,1.7c1.1,0.1,1.8,0.8,1.7,1.7c-0.1,0.9-0.8,1.5-2,1.4c-2.4-0.2-4.1-1.5-5.2-3.6
		c-1.4,0.5-2.8,0.9-4.3,1.4c0.7,1.5,1.8,2.5,3.1,3.3c0.2,0.1,0.4,0.2,0.6,0.3c0.9,0.6,1.2,1.4,0.8,2.2c-0.4,0.8-1.4,1.1-2.4,0.5
		c-2.2-1.2-4-2.8-5-5.1c-0.2-0.5-0.5-0.7-1.1-0.6c-1.1,0.2-2.3,0.3-3.5,0.4c0.4,1.8,1.4,3,2.8,4c0.5,0.3,1.1,0.5,1.6,0.8
		c0.9,0.4,1.2,1.3,0.8,2.1c-0.3,0.8-1.2,1.1-2.1,0.8c-3.3-1.3-5.4-3.7-6.3-7.1c-0.1-0.2-0.1-0.4-0.2-0.6c-2.3,0.2-4.2,1.8-4.7,4.1
		c-0.5,2.3,0.5,4.8,2.5,5.9c2.1,1.1,4.3,2.2,6.4,3.3c0.5,0.2,0.7,0.1,1-0.3c3.3-4.5,8.1-4.5,12.5-2.7c1.1,0.4,1.5,1.3,0.9,2.5
		c-0.8,1.5-1.7,3-2.5,4.5c0.8,1.3,1.7,2.7,2.4,4.2c0.8,1.5,0.4,2.3-1.3,2.9c-2.7,1-5.5,1.4-8.2,0.2c-1.7-0.7-2.9-2-4.1-3.5
		c-0.2-0.3-0.8-0.6-1.2-0.6c-9.7,0.1-17.2-3.9-22.1-12.3c-3.7-6.3-4.7-13.1-1.7-20c3.2-7.4,9.1-11.4,17.1-12c9-0.7,17.3,1.7,25,6.4
		c1.6,1,3,2.1,4.4,3.3c0.5,0.4,0.8,0.4,1.3,0.2c1.1-0.6,1.8-1.5,1.9-2.8c0.2-5-3.9-9.4-8.9-9.4c-4.1,0-8.2,0-12.4,0
		c-0.4,0-0.8,0-1.1-0.1c-0.8-0.2-1.2-0.8-1.2-1.6c0-0.8,0.7-1.4,1.5-1.4c4.9,0,9.8-0.2,14.6,0.2c6,0.5,10.6,6,10.7,11.9
		c0.1,3.3-1.9,5.9-5.1,6.7c-0.4,0.1-0.7,0.2-1,0.5c-2.5,2.3-5.2,4.2-8.2,5.8C557.7,43.2,557.6,43.2,557.4,43.4z M563.5,35.2
		c-2-1.3-3.8-2.6-5.8-3.6c-4.4-2.4-9-4.1-14-4.7c-0.7-0.1-1,0.1-1.4,0.7c-3.1,4.6-3,11.3,0.2,15.8c0.3,0.5,0.7,0.6,1.2,0.5
		c4.6-0.4,8.9-1.6,12.9-3.8C559,38.9,561.2,37.3,563.5,35.2z M539,43.8c-2.9-5.6-2.9-11.3,0-17c-4.6-0.3-8.6,0.9-12.1,3.7
		c-0.3,0.2-0.5,0.7-0.6,1c-0.3,5.5,3.2,11.3,8.4,13.5c0.3,0.1,0.7,0.1,1,0C536.8,44.7,537.8,44.3,539,43.8z M532.8,47.7
		c-5.2-2.8-8.3-7.1-9.5-13c-0.3,0.5-0.5,0.8-0.6,1c-2.8,5.7-2.2,11.3,0.3,16.9c0.1,0.2,0.3,0.5,0.6,0.6c2.5,0.9,5.1,1.2,7.8,0.6
		C531.1,51.6,531.5,49.6,532.8,47.7z M554.6,68.8c-0.8-0.9-1.4-1.9-2.2-2.6c-1.7-1.2-1.7-2.4,0-3.7c0.9-0.6,1.4-1.6,2.2-2.5
		c-3.1-1.4-7.2,0.2-8.1,3.1c-0.2,0.8-0.2,1.8,0.1,2.5C547.7,68.8,551.3,70.2,554.6,68.8z M526.4,57.5c3.4,4.6,10.9,7.7,16.6,7.1
		c0.3-0.6-0.1-0.8-0.6-1.1c-2-1-4-2-6-3c-1.5-0.7-2.7-1.7-3.7-3.1c-0.1-0.2-0.4-0.4-0.6-0.4C530.2,57.1,528.2,57.3,526.4,57.5z"/>
	<path d="M550.1,35.3c0,0.8-0.8,1.6-1.6,1.5c-0.9,0-1.6-0.8-1.5-1.7c0.1-0.8,0.8-1.5,1.6-1.5C549.4,33.6,550.2,34.4,550.1,35.3z"/>
</g>
<g>
	<path d="M622,19.8c1.7,0,3.3,0.3,4.7,1.4c0.3,0.2,0.8,0.3,1.3,0.3c1.3,0.1,2.6,0.1,3.9,0.2c2.8,0.3,5,2.1,5.8,4.9
		c0.1,0.3,0.4,0.5,0.6,0.6c0.9,0.3,1.9,0.5,2.8,0.9c2,0.9,3.1,2.5,3.2,4.8c0,0.6,0.2,1,0.7,1.3c1.9,1.3,3.2,3.1,3.8,5.3
		c0.7,2.6,0,5-1.8,7c-2.9,3.1-6.1,5.9-9.5,8.4c-0.8,0.6-1.2,1.2-1.1,2.2c0.1,1.7-0.1,3.3-1.2,4.7c-1.9,2.4-5.2,3.1-7.7,1.4
		c-1.1-0.7-1.8-0.7-2.9-0.1c-1.7,1-3.5,0.8-5.1-0.2c-0.8-0.5-1.4-0.6-2.3,0.1c-2,1.5-4.2,1.6-6.4,0.5c-2.2-1.1-3.3-3.1-3.1-5.5
		c0.1-1.6-0.5-2.4-1.7-3.3c-3.2-2.2-6.2-4.7-8.6-7.7c-3.5-4.5-2.7-9.2,1.9-12.6c0.3-0.2,0.6-0.6,0.7-0.9c0.4-3.4,1.7-5,5-5.8
		c1-0.2,1.6-0.6,2-1.7c0.9-2.5,2.9-3.8,5.6-4.1c1.2-0.1,2.5-0.1,3.7-0.2c0.5-0.1,1.1-0.3,1.5-0.5C619.1,20.1,620.5,19.8,622,19.8z
		 M615.7,23.7c-0.9,0.1-1.6,0.1-2.4,0.1c-3.4,0.2-5.2,2.1-4.6,5.5c0.5,2.7,1.3,5.4,2.3,8c1.3,3.4,3,6.7,4.5,10
		c0.3,0.7,0.4,1.3-0.4,1.7c-0.7,0.3-1.2-0.1-1.5-0.7c-2.3-4.8-4.6-9.6-6.2-14.7c-0.4-1.4-0.7-2.8-1-4.3c-0.7,0.2-1.4,0.4-2,0.6
		c-1.7,0.7-2.4,1.9-2.3,3.7c0.2,2,0.6,3.9,1.7,5.6c1.1,1.8,2.3,3.6,3.7,5.3c1.5,1.8,3.2,3.4,4.8,5.1c0.5,0.5,0.6,1.1,0.1,1.6
		c-0.6,0.5-1.1,0.4-1.6-0.1c-1.6-1.6-3.3-3.2-4.7-5c-1.6-2-3.1-4.2-4.4-6.4c-0.7-1-1-2.3-1.4-3.5c-2.9,1.8-3.8,5.3-2,8.1
		c0.9,1.4,2,2.6,3.2,3.7c5.7,5.4,12.3,9.4,19.2,13c1,0.5,2.1,0.5,3.1-0.1c1.5-0.8,3-1.6,4.4-2.4c6.3-3.8,12.3-8.1,17.3-13.5
		c2.4-2.6,1.7-6.9-1.5-8.8c-1,3.8-3,6.9-5.6,9.7c-1.6,1.8-3.4,3.5-5.1,5.2c-0.2,0.2-0.8,0.4-1.2,0.2c-0.3-0.1-0.6-0.6-0.6-0.9
		c0-0.3,0.3-0.7,0.6-1c1.9-2,3.8-4,5.6-6.1c2.1-2.4,3.7-5.1,4.3-8.4c0.7-3.4-1-5.7-4.3-5.6c-0.1,0.5-0.1,1-0.2,1.5
		c-1.4,6.2-4.2,11.9-6.9,17.5c-0.3,0.7-0.8,0.9-1.5,0.6c-0.7-0.3-0.6-0.9-0.4-1.5c0.1-0.3,0.2-0.5,0.4-0.8c1.2-2.7,2.6-5.3,3.7-8
		c1.1-3,2.1-6,2.8-9.1c0.7-2.9-0.6-5-3.2-5.7c-1.2-0.3-2.6-0.3-4-0.4c1,3.1,0.6,6,0.1,8.9c-0.5,3.1-1.2,6.1-1.7,9.1
		c-0.1,0.8-0.4,1.4-1.3,1.2c-0.9-0.1-0.9-0.9-0.8-1.6c0.3-1.8,0.7-3.6,1-5.4c0.6-3.1,1.3-6.3,1.1-9.5c-0.2-3.3-1.9-4.8-5.2-4.5
		c-2.6,0.2-4,1.5-4.1,4.1c-0.1,1.7-0.1,3.4,0.2,5.1c0.5,3.4,1.2,6.8,1.9,10.3c0.1,0.7,0.1,1.4-0.8,1.5c-0.9,0.1-1.1-0.5-1.3-1.2
		c-0.2-1.2-0.5-2.4-0.7-3.6C615.9,33.3,614.5,28.7,615.7,23.7z M609.7,57.2c-0.2,2,0.5,3.5,2,4.2c1.4,0.7,3,0.5,4.2-0.5
		C613.8,59.7,611.8,58.5,609.7,57.2z M628.2,61c1.4,1.1,2.9,1.2,4.3,0.3c1.3-0.8,2-2.4,1.6-4C632.2,58.6,630.2,59.8,628.2,61z"/>
	<path d="M618.6,47.3c-0.3-0.4-0.7-0.8-0.7-1.2c-0.1-0.6,0.4-1,1-1c0.7,0,1.1,0.4,0.9,1c-0.1,0.4-0.5,0.8-0.8,1.1
		C618.9,47.3,618.8,47.3,618.6,47.3z"/>
	<path d="M625,47.3c-0.3-0.4-0.7-0.7-0.8-1.2c-0.1-0.6,0.3-1,1-1c0.6,0,1.1,0.4,1,1c-0.1,0.4-0.5,0.8-0.8,1.2
		C625.3,47.3,625.2,47.3,625,47.3z"/>
</g>
<g>
	<path d="M787.9,22c0.9-0.9,1.7-1.9,2.6-2.7c3.2-2.9,6.8-4.7,11.2-4c3.6,0.5,6.4,2.5,8.8,5.1c3.9,4.3,6.3,9.4,7.7,15
		c0.9,3.5,1.5,7.1,1,10.8c-0.8,6.6-4,11.7-9.9,14.9c-7,3.8-14,3.3-20.6-1.1c-0.6-0.4-1-0.4-1.6,0c-11.4,8.2-27.5,1.7-30.2-12
		c-0.8-3.8-0.3-7.5,0.5-11.2c1.2-5.3,3.2-10.2,6.5-14.5c1.6-2.1,3.5-4,5.8-5.3c4.6-2.6,9.1-2.4,13.4,0.6c1.6,1.1,2.9,2.6,4.3,4
		C787.5,21.6,787.7,21.8,787.9,22z M790.6,56.7c0.4,0.3,0.7,0.5,1,0.7c4.1,2.5,8.4,3,13,1.7c6.4-1.9,10.9-8,11-14.7
		c0.1-4.5-0.9-8.7-2.5-12.9c-1.6-3.9-3.7-7.5-7-10.2c-2.5-2.1-5.3-3.1-8.5-2.1c-3.1,1-5.3,3.3-7.2,5.8c-0.1,0.2-0.1,0.7,0.1,0.9
		c2.6,4.7,4.2,9.8,4.7,15.1c0.3,3,0.2,6-0.8,8.9C793.5,52.4,792.3,54.6,790.6,56.7z M760.2,43.6c-0.4,8.9,7.3,17.2,17.7,16.1
		c8-0.9,14.3-8.4,13.7-16.6c-0.3-5.3-1.7-10.4-4.3-15.1c-1.6-2.9-3.5-5.5-6.3-7.4c-3.2-2.2-6.5-2.4-9.8-0.3
		c-1.1,0.7-2.2,1.6-3.1,2.6C762.8,28.8,760.6,35.8,760.2,43.6z"/>
	<path d="M786,44.1c0,5.6-4.5,10.1-10,10.1c-5.7,0-10.2-4.5-10.2-10.1c0-5.6,4.5-10.1,10-10.2C781.4,33.9,785.9,38.5,786,44.1z
		 M769.4,44.1c0,3.5,2.9,6.4,6.4,6.4c3.6,0,6.5-2.9,6.5-6.4c0-3.6-2.9-6.4-6.5-6.4C772.3,37.7,769.4,40.6,769.4,44.1z"/>
</g>
<g>
	<path d="M703.3,68.6c-14.3,0-25.8-11.6-25.8-25.9c0-14.2,11.6-25.8,25.8-25.7c14.7,0,26,12.1,25.8,26.3
		C729,57.1,717.4,68.7,703.3,68.6z M703.3,65.7c12.5,0.1,22.9-10.1,23-22.7c0.1-12.7-10.2-23.1-22.9-23.1
		c-12.4-0.1-22.8,10.3-22.9,22.8C680.4,55.3,690.6,65.6,703.3,65.7z"/>
	<path d="M696.5,43.8c0.1-2.7,1.2-4.9,3.7-6.1c0.7-0.3,1-0.7,0.9-1.4c-0.1-0.4,0.1-0.8,0-1.1c-0.1-0.4-0.3-0.8-0.5-1.1
		c-2-1.5-2.8-4-1.9-6.2c0.9-2.1,3.2-3.5,5.4-3.1c2.4,0.4,4.2,2.2,4.4,4.8c0.1,1.7-0.5,3.2-1.9,4.2c-0.5,0.4-0.8,0.8-0.7,1.5
		c0,0.3,0,0.6,0,0.9c-0.1,0.9,0.2,1.4,1,1.9c2.2,1.3,3.2,3.3,3.2,5.9c0,0.7,0.1,1.1,0.8,1.4c0.3,0.1,0.5,0.3,0.7,0.4
		c0.6,0.5,1.2,0.5,2,0.1c1.9-1,4.3-0.3,5.8,1.3c1.5,1.6,1.7,4,0.6,5.9c-1.1,1.9-3.3,2.9-5.4,2.4c-2.2-0.4-3.8-2.2-4.1-4.3
		c-0.1-0.4-0.4-0.7-0.6-1c-0.2-0.2-0.5-0.3-0.8-0.5c-0.8-0.6-1.5-0.7-2.4-0.1c-2.3,1.4-4.7,1.2-6.9-0.2c-0.5-0.3-0.9-0.4-1.4,0
		c-0.1,0.1-0.3,0.2-0.5,0.3c-0.9,0.4-1.5,1-1.7,2.1c-0.6,3-3.7,4.6-6.5,3.6c-2.8-1-4.2-4.1-3.1-6.9c1.1-2.7,4.3-3.8,6.9-2.5
		c0.5,0.3,0.9,0.3,1.4-0.1c0.3-0.2,0.6-0.4,1-0.6C696.4,44.9,696.8,44.5,696.5,43.8z M708,43.6c0-2.5-2.1-4.6-4.7-4.6
		c-2.5,0-4.7,2.1-4.7,4.7c0,2.5,2.2,4.7,4.7,4.7C705.9,48.3,708,46.1,708,43.6z M694.1,50.4c0-1.7-1.3-2.9-3-2.9c-1.7,0-3,1.3-3,3
		c0,1.6,1.4,2.9,3,2.9C692.8,53.5,694.1,52.1,694.1,50.4z M706.3,29.8c0-1.6-1.2-3-2.9-3.1c-1.6-0.1-3.1,1.3-3.1,2.9
		c0,1.6,1.3,3,2.9,3C704.9,32.7,706.3,31.5,706.3,29.8z M715.5,47.5c-1.7,0-3,1.3-3,2.9c0,1.6,1.3,3,2.9,3c1.6,0,3-1.3,3-3
		C718.5,48.8,717.2,47.5,715.5,47.5z M711.2,47.6c-0.6-0.4-1.2-0.7-1.8-1c-0.2,0.3-0.3,0.5-0.4,0.8c0.6,0.3,1.1,0.7,1.7,1
		C710.9,48.1,711,47.9,711.2,47.6z M697.2,46.6c-0.6,0.4-1.2,0.7-1.8,1.1c0.2,0.3,0.3,0.5,0.5,0.8c0.6-0.4,1.2-0.7,1.7-1
		C697.5,47.1,697.4,46.9,697.2,46.6z M703,35c0.3,0.6-0.5,1.6,0.5,1.8c0.9,0.2,0.4-0.8,0.5-1.2C704.1,34.9,703.7,34.7,703,35z"/>
</g>
<g>
	<path d="M883,56.7c-1.8-10-7.2-15.1-15.5-15.2c-6.7-0.1-15,5.3-15.4,15.3c-0.8,0-1.7,0-2.5,0c-1.1-6.1,3.9-13.3,11.9-17.1
		c-3-2.4-4.6-5.6-4.4-9.5c0.2-2.7,1.3-5,3.3-6.8c4.1-3.8,10.4-3.8,14.4,0.1c4.6,4.4,4.3,10.2-1,16.3c7.5,3.2,11.5,8.8,12,17.1
		C884.8,56.7,883.9,56.7,883,56.7z M867.6,23.3c-4.3,0-7.7,3.4-7.7,7.6c0,4.2,3.4,7.6,7.6,7.7c4.2,0.1,7.7-3.4,7.8-7.6
		C875.2,26.8,871.8,23.3,867.6,23.3z"/>
</g>
<g>
	<path d="M1119.6,40.7c0,0-14.4,14.3-14.5,14.5c-0.9,0.9-1.5,1-2.1,0.4c-0.6-0.6-0.5-1.2,0.4-2c4.5-4.5,14.4-14.4,14.4-14.4
		s-14.5-14.5-14.6-14.7c-0.7-0.7-0.8-1.4-0.1-1.9c0.7-0.5,1.3-0.3,1.8,0.3c4.3,4.4,14.6,14.7,14.6,14.7s14.7-14.6,14.8-14.8
		c0.6-0.5,1.2-0.6,1.8,0c0.5,0.5,0.4,1.2-0.1,1.7c-0.2,0.2-14.8,14.7-14.8,14.7s14.9,14.9,15,15.1c0.1,0.5,0.1,1.1-0.1,1.5
		c-0.3,0.5-1,0.5-1.5,0.1C1134.3,55.4,1119.6,40.7,1119.6,40.7z"/>
</g>
<g>
	<path d="M989.8,45c1.4-1.4,2.7-2.8,4-4.1c0.8-0.8,1.4-0.8,2.2,0c0.9,0.9,1.8,1.9,2.8,2.9c2.1-2.1,4.1-4.1,6.1-6.1
		c0.3-0.3,0.6-0.6,0.9-0.9c0.6-0.6,1.3-0.6,1.9,0c0.9,0.8,1.7,1.7,2.6,2.5c0.6,0.7,0.6,1.4,0,1.9c-0.6,0.6-1.3,0.5-1.8-0.1
		c-0.5-0.5-1-1.2-1.5-1.9c-2,2-3.7,3.8-5.4,5.5c-0.5,0.5-0.9,0.9-1.4,1.4c-0.9,0.9-1.5,0.9-2.4,0c-0.9-0.9-1.7-1.8-2.7-2.9
		c-1.8,1.8-3.5,3.5-5.1,5.3c-0.1,0.2-0.2,0.5-0.2,0.7c0,0.9,0,1.8,0,2.7c0,1.1,0.5,1.5,1.5,1.5c2.1,0,4.1,0,6.2,0
		c0.8,0,1.4,0.3,1.5,1.1c0.1,0.9-0.4,1.5-1.3,1.5c-2.3,0-4.7,0.1-7,0c-2.1-0.1-3.5-1.7-3.6-3.9c0-7.9,0-15.9,0-23.8
		c0-2.4,1.8-3.9,4.3-3.9c6,0,12,0,18.1,0c1.7,0,3.4,0,5,0c2.7,0,4.2,1.6,4.3,4.3c0,1.6,0,3.1,0,4.7c0,1.1-0.5,1.6-1.3,1.6
		c-0.9,0-1.3-0.5-1.3-1.6c0-1.6,0-3.2,0-4.8c0-1.1-0.4-1.6-1.5-1.6c-7.8,0-15.5,0-23.3,0c-1,0-1.6,0.4-1.6,1.4c0,5.4,0,10.8,0,16.2
		C989.6,44.7,989.7,44.8,989.8,45z"/>
	<path d="M1019.1,37.7c2,0.1,3.5,1.1,4.4,3c0.8,1.9,0.6,3.8-0.8,5.3c-1.4,1.5-2.9,2.9-4.3,4.4c-3.1,3.1-6.2,6.2-9.3,9.2
		c-0.2,0.2-0.5,0.5-0.9,0.5c-2,0.4-4,0.8-6,1.2c-1.5,0.3-2.2-0.4-1.9-1.9c0.4-2,0.7-3.9,1.2-5.9c0.1-0.5,0.4-0.9,0.8-1.3
		c4.3-4.4,8.7-8.7,13.1-13.1C1016.3,38.2,1017.6,37.7,1019.1,37.7z M1014.6,43.7c-0.1,0.1-0.3,0.2-0.5,0.4c-2.9,2.9-5.7,5.9-8.7,8.6
		c-1.8,1.6-1.7,3.6-2.2,5.7c2.3-0.3,4.5-0.4,6-2.5c0.4-0.6,1-1,1.5-1.5c2.4-2.4,4.9-4.8,7.4-7.3C1017,45.9,1015.9,44.8,1014.6,43.7z
		 M1020,45c0.9-0.7,1.5-1.6,1.2-2.8c-0.2-1-0.8-1.6-1.8-1.8c-1.2-0.3-2.1,0.3-2.8,1.2C1017.8,42.7,1018.9,43.9,1020,45z"/>
	<path d="M1002.8,33.8c0,2.2-1.8,4-4,3.9c-2.3,0-3.9-1.8-3.9-4c0-2.2,1.7-3.9,3.9-3.9C1001.1,29.8,1002.8,31.5,1002.8,33.8z
		 M1000.2,33.8c0-0.8-0.5-1.3-1.3-1.4c-0.8,0-1.3,0.5-1.3,1.3c0,0.8,0.5,1.3,1.3,1.4C999.6,35.1,1000.2,34.5,1000.2,33.8z"/>
</g>
<g>
	<path d="M1063.4,55.6c-4.5,0-8.9-0.1-13.4,0c-3.9,0.1-5.9-3.7-3.9-6.9c4.6-7.7,9-15.5,13.5-23.3c1.8-3.2,5.8-3.2,7.6-0.1
		c4.6,7.8,9,15.7,13.6,23.6c1.8,3.1-0.2,6.8-4,6.7C1072.4,55.5,1067.9,55.6,1063.4,55.6z M1063.4,53.5c4.6,0,9.2,0,13.8,0
		c1.9,0,2.8-1.7,1.9-3.3c-4.5-7.8-9-15.6-13.5-23.4c-1.2-2.1-3-2.1-4.3,0c-4.4,7.7-8.8,15.4-13.4,23.1c-1,1.8-0.1,3.7,2.1,3.7
		C1054.4,53.4,1058.9,53.5,1063.4,53.5z"/>
	<path d="M1062.4,44.3c0-3.5,0-7,0-10.5c0.7,0,1.3,0,2,0c0,3.5,0,7,0,10.5C1063.7,44.3,1063.1,44.3,1062.4,44.3z"/>
	<path d="M1063.4,49.3c-0.7,0-1.4-0.6-1.4-1.4c0-0.8,0.6-1.5,1.4-1.4c0.8,0,1.4,0.6,1.4,1.5C1064.8,48.7,1064.1,49.3,1063.4,49.3z"
		/>
</g>
<g>
	<path d="M939.2,27.2c4.6,0,9.1,0,13.7,0c2.8,0,4.5,1.7,4.5,4.5c0,6.1,0,12.3,0,18.4c0,2.7-1.8,4.5-4.5,4.5c-9.2,0-18.4,0-27.7,0
		c-2.7,0-4.5-1.7-4.5-4.4c0-6.2,0-12.4,0-18.6c0-2.7,1.8-4.4,4.5-4.4C929.9,27.2,934.5,27.2,939.2,27.2z M954.8,44.5
		c0.1-0.1,0.2-0.1,0.3-0.2c0-4.3,0-8.6,0-12.9c0-1.3-0.8-1.9-2.2-1.9c-9.2,0-18.3,0-27.5,0c-1.6,0-2.3,0.7-2.3,2.3c0,5,0,10,0,15
		c0,0.2,0.1,0.4,0.1,0.8c2.2-2.2,4.2-4.2,6.2-6.3c1.3-1.3,2.8-1.3,4.1,0c0.6,0.6,1.1,1.2,1.6,1.9c2.5-2.5,4.7-4.8,7-7
		c1.6-1.6,3-1.6,4.6,0c1.4,1.4,2.8,2.8,4.2,4.2C952.2,41.8,953.5,43.1,954.8,44.5z M931.6,42.4c-0.4,0.4-0.7,0.6-0.9,0.8
		c-2.4,2.3-4.7,4.7-7,7c-0.7,0.7-0.7,1.1,0.1,1.6c0.4,0.2,0.9,0.4,1.3,0.4c9.3,0,18.5,0,27.8,0c0.5,0,1.1-0.3,1.5-0.6
		c0.9-0.8,0.9-3.6,0-4.4c-3.1-3.1-6.2-6.2-9.3-9.3c-0.6-0.6-0.9-0.6-1.5,0c-2.4,2.4-4.8,4.8-7.2,7.2c-1,1-1.4,1-2.4,0
		C933.2,44.2,932.4,43.3,931.6,42.4z"/>
	<path d="M931.4,34.9c0,1.7-1.4,3-3.1,3c-1.7,0-3.1-1.5-3-3.1c0.1-1.7,1.5-3,3.2-2.9C930.2,31.8,931.5,33.2,931.4,34.9z M928.4,35.9
		c0.4-0.5,0.7-0.8,0.7-1c0-0.3-0.4-0.5-0.6-0.8c-0.3,0.2-0.7,0.4-0.8,0.7C927.6,35,928,35.4,928.4,35.9z"/>
</g>
</svg>
