<?xml version="1.0" encoding="utf-8"?>
<!-- Generator: Adobe Illustrator 27.1.1, SVG Export Plug-In . SVG Version: 6.00 Build 0)  -->
<svg version="1.1" id="Capa_1" xmlns="http://www.w3.org/2000/svg" xmlns:xlink="http://www.w3.org/1999/xlink" x="0px" y="0px"
	 viewBox="0 0 80 80" style="enable-background:new 0 0 80 80;" xml:space="preserve">
<style type="text/css">
	.st0{fill:none;stroke:#000000;stroke-width:4;stroke-linecap:round;stroke-linejoin:round;stroke-miterlimit:10;}
	.st1{fill:none;stroke:#000000;stroke-width:6;stroke-linejoin:round;stroke-miterlimit:10;}
</style>
<path d="M44,36.6L44,9.1c0-1.1-0.9-2-2-2l-2,0c-1.1,0-2,0.9-2,2L38,36.6l-27.6,0.1c-1.1,0-2,0.9-2,2l0,2c0,1.1,0.9,2,2,2l27.5-0.1
	l-0.1,27.5c0,1.1,0.9,2,2,2l2,0c1.1,0,2-0.9,2-2l0.1-27.6l27.6-0.1c1.1,0,2-0.9,2-2l0-2c0-1.1-0.9-2-2-2L44,36.6z"/>
</svg>
