<?xml version="1.0" encoding="utf-8"?>
<!-- Generator: Adobe Illustrator 27.1.1, SVG Export Plug-In . SVG Version: 6.00 Build 0)  -->
<svg version="1.1" id="Capa_1" xmlns="http://www.w3.org/2000/svg" xmlns:xlink="http://www.w3.org/1999/xlink" x="0px" y="0px"
	 viewBox="0 0 80 80" style="enable-background:new 0 0 80 80;" xml:space="preserve">
<g>
	<path d="M16.1,36c-1.7,0-3.3,0-5.1,0c-0.6-5.8,0.9-10.9,4.7-15.2c3.7-4.2,8.5-6.2,14-6.3c2.4,0,4.8,0,7.2,0c0.7,0,1-0.1,1.3-0.9
		c2-5.8,6.7-9.2,12.8-9.3c0.9,0,1.7,0,2.7,0c0,1.8,0,3.5,0,5.3c-3.1,0.1-6.2-0.1-8.6,2.5c-0.6,0.6-1,1.4-1.7,2.4c2.7,0,4.9,0,7.1,0
		c3,0,5.8,0.6,8.6,1.8c7.2,3.3,11.8,11.7,10.6,19.6c-1.6,0-3.3,0-5.1,0c0,0.6-0.1,1-0.1,1.5c-0.9,16.2-9,27.7-23.3,35
		c-0.5,0.2-1.3,0.2-1.8-0.1C25,64.9,17,53.3,16.2,36.9c0-0.1,0-0.3,0-0.4C16.2,36.4,16.2,36.3,16.1,36z M59,36.1
		c-12.6,0-25,0-37.4,0c0,0.3-0.1,0.4-0.1,0.5c0.5,13.3,6.7,23.1,18.1,29.8c0.4,0.2,1.1,0.1,1.5-0.1c6.8-3.9,12-9.4,15.1-16.7
		C58.2,45.4,59,40.9,59,36.1z M64.1,30.5c-0.1-0.6-0.2-1-0.4-1.4c-1.8-5.6-6.8-9.1-13-9.2c-6.9-0.1-13.8-0.1-20.7,0.1
		c-2.1,0.1-4.3,0.5-6.2,1.4c-3.9,1.7-6.2,4.9-7.2,9.2C32.4,30.5,48.2,30.5,64.1,30.5z"/>
	<path d="M32.6,40.7c1.6,7.2,5.3,12.9,11.5,16.9c-1.2,1.5-2.2,2.8-3.3,4.2c-7.1-4.8-11.4-11.3-13.4-19.7
		C29.1,41.7,30.7,41.2,32.6,40.7z"/>
</g>
</svg>
