<?xml version="1.0" encoding="utf-8"?>
<!-- Generator: Adobe Illustrator 27.1.1, SVG Export Plug-In . SVG Version: 6.00 Build 0)  -->
<svg version="1.1" id="Capa_1" xmlns="http://www.w3.org/2000/svg" xmlns:xlink="http://www.w3.org/1999/xlink" x="0px" y="0px"
	 viewBox="0 0 80 80" style="enable-background:new 0 0 80 80;" xml:space="preserve">
<g>
	<path d="M58.8,53.6c1.5-3.4,1.7-7,1.6-10.6c0-1.9-0.6-3.2-2.8-3.7c2.4-4.2,3.1-8.6,2.8-13.2c-0.2-2.4-0.9-3.3-3.4-3.3
		c-2.5,0-4.9,0.2-7.5,0.3c0.9-7-2.6-12.2-7.6-16.7c-1.6-1.4-2.8-1.5-4.4,0c-3.9,3.5-7,7.6-7.6,13c-0.1,1.2,0,2.5,0,3.8
		c-1.9,0-5.7-0.5-7.8-0.9c-2.1-0.4-2.5,1.1-2.6,1.4c-1.3,5.1-0.5,10,1.8,14.6c0.1,0.2,0.2,0.4,0.4,0.8c-2.8,0.4-2.8,2.5-2.8,4.6
		c0,3.3,0.4,6.5,1.7,9.6c2.4,5.7,7.2,8.1,13,9c1.1,0.2,2.2,0.2,3.5,0.3c0,2.4,0,4.7,0,7c0,0.6,0,1.2,0.1,1.8
		c0.2,1.4,1.3,2.3,2.7,2.2c1.5-0.2,2.4-1,2.4-2.5c0.1-2.2,0-4.4,0-6.7c0-0.6,0-1.2,0-1.9c4.7-0.2,9-1,12.6-3.8
		C56.2,57.9,58,55.3,58.8,53.6z M24.2,44.7c8.7-0.2,12.9,4.4,12.6,12.5C29.9,58.9,23.5,52.5,24.2,44.7z M36.8,40.7
		c-7.7,0.9-13-4.3-12.7-12.3C32,27.2,37.3,32.5,36.8,40.7z M39.7,29.6c-6.2-5.6-6.2-12.2,0-17.8C46.4,17.9,45.3,24.3,39.7,29.6z
		 M55,28.2c0.7,8.9-5.1,13-12.5,12.5C41.5,33.1,47.5,27.3,55,28.2z M42.5,57.3c-0.5-8.3,4.3-13,12.6-12.6
		C55.2,53,51.2,57.7,42.5,57.3z"/>
</g>
</svg>
