<?xml version="1.0" encoding="utf-8"?>
<!-- Generator: Adobe Illustrator 27.1.1, SVG Export Plug-In . SVG Version: 6.00 Build 0)  -->
<svg version="1.1" id="Capa_1" xmlns="http://www.w3.org/2000/svg" xmlns:xlink="http://www.w3.org/1999/xlink" x="0px" y="0px"
	 viewBox="0 0 80 80" style="enable-background:new 0 0 80 80;" xml:space="preserve">
<g>
	<path d="M19.9,31.5c-2.1-0.3-3.9-1-5.3-2.5c-2.2-2.1-3-4.8-2.5-7.7c0.7-3.5,2.9-5.8,6.5-6.6c3.2-0.7,6.1,0,8.3,2.5
		c0.8,0.9,1.4,2.2,1.9,3.4c0.2,0.5,0.4,0.6,0.9,0.6c3.3,0,6.6,0,9.9,0c2.7,0,5.5,0,8.2,0c0.8-2,1.6-4,2.4-6c0.8-2,1.5-3.9,2.4-5.9
		c0.3-0.8,1.2-0.9,1.9-1.1c3-1,5.9-1.9,8.9-2.9c0.9-0.3,1.8-0.6,2.7-1c0.8-0.3,1.6,0,1.9,0.7c0.3,0.7-0.1,1.5-0.9,1.8
		c-2,0.7-4.1,1.4-6.1,2c-2,0.6-3.9,1.2-5.9,2c-0.4,0.2-0.7,0.9-0.9,1.4c-1.2,2.9-2.3,5.9-3.5,8.9c0.3,0,0.6,0.1,0.8,0.1
		c1.3,0,2.6,0,3.9,0c1.1,0,1.6,0.5,1.5,1.7c-0.3,2.7-0.6,5.4-0.9,8.1c-0.2,1.9-0.4,3.8-0.6,5.7c-0.3,3.3-0.6,6.6-0.9,10
		c-0.2,1.7-0.3,3.5-0.4,5.2c-0.2,2.4-0.5,4.7-0.7,7.1c-0.2,2.4-0.3,4.8-0.5,7.2c-0.2,2.4-0.4,4.8-0.6,7.2c-0.1,1.1-0.6,1.5-1.7,1.5
		c-8.4,0-16.9,0-25.3,0c-1.2,0-1.5-0.2-1.6-1.5c-0.3-3.1-0.5-6.1-0.8-9.2c-0.3-3.2-0.5-6.3-0.8-9.5c-0.3-2.9-0.5-5.8-0.8-8.6
		c-0.3-3.1-0.5-6.2-0.8-9.3C20.2,35.1,20.1,33.3,19.9,31.5z M23.2,40.3c0.1,0.9,0.2,1.6,0.3,2.4c0.3,3.1,0.5,6.3,0.8,9.4
		c0.2,2.6,0.4,5.1,0.6,7.7c0.1,1.1,0.2,2.2,0.3,3.3c0.2,2.7,0.5,5.5,0.7,8.2c0,0.8,0.3,0.9,1,0.9c7.3,0,14.6,0,21.9,0
		c0.1,0,0.3,0,0.4,0c0.2-0.1,0.5-0.3,0.5-0.5c0.3-2.8,0.5-5.6,0.8-8.5c0.3-3.4,0.6-6.9,0.8-10.3c0.1-1.1,0.2-2.2,0.3-3.3
		c0.3-2.9,0.5-5.8,0.8-8.7c0-0.4-0.1-0.6-0.5-0.7c-1-0.2-2-0.4-3-0.6c-2.9-0.6-5.8-0.6-8.7-0.2c-0.9,0.1-1.7,0.4-2.6,0.5
		c-1.3,0.2-2.5,0.4-3.8,0.6c-2.7,0.3-5.4,0.4-8.1,0C24.9,40.6,24.2,40.4,23.2,40.3z M26.2,38.2c0-0.5,0-0.8,0-1c0-1.8,0-3.5,0-5.3
		c0-1.3,0.4-1.7,1.7-1.7c2.6,0,5.3,0,7.9,0c1.4,0,1.7,0.3,1.7,1.7c0,1.6,0,3.2,0,4.8c0,0.2,0.2,0.6,0.2,0.6c0.3,0,0.6-0.1,0.8-0.2
		c0.2-0.1,0.3-0.4,0.4-0.7c0.8-2.1,1.6-4.1,2.5-6.2c0.4-1.1,1-1.3,2.1-1c0.2,0.1,0.4,0.2,0.6,0.2c0.2,0,0.5-0.1,0.6-0.2
		c0.7-1.7,1.4-3.4,2.1-5.2c-8.3,0-16.5,0-24.8,0c0.4,4.5,0.8,9,1.1,13.5C24,37.7,25,37.9,26.2,38.2z M19.7,28.8
		c-0.1-0.6-0.1-1.2-0.2-1.7c-0.1-1.5-0.3-3-0.3-4.4c0-1.1,0.4-1.4,1.5-1.4c1.5,0,3,0,4.5,0c0.3,0,0.5,0,0.8-0.1
		c-0.8-2.7-3.1-4.6-6.8-4.1c-2.4,0.4-4.4,2.3-4.7,4.8C14.4,25.7,16,27.8,19.7,28.8z M54.2,23.9c-1.6,0-2.9,0-4.3,0
		c-0.2,0-0.4,0.2-0.5,0.4c-0.5,1.2-1,2.3-1.4,3.5c-0.4,0.9-0.7,1.8-1.1,2.8c1.5,0.6,2.9,1.2,4.2,1.7c0.9,0.4,1.1,1,0.7,1.9
		c-0.3,0.7-0.6,1.3-0.8,2c-0.1,0.4-0.2,0.7-0.3,1.1c0.5,0.1,0.9,0.3,1.3,0.4c0.5,0.1,0.8-0.1,0.8-0.6c0.3-3.1,0.6-6.1,1-9.2
		C53.9,26.6,54,25.3,54.2,23.9z M28.8,38.4c1.9-0.1,3.8-0.2,5.6-0.4c0.2,0,0.4-0.4,0.4-0.6c0-1.4,0-2.7,0-4.1c0-0.5-0.2-0.6-0.6-0.6
		c-1.2,0-2.3,0-3.5,0c-0.6,0-1.2,0-1.9,0C28.8,34.6,28.8,36.4,28.8,38.4z M41.5,36.7c0.4,0,0.7,0,1,0c1.4,0,2.8,0,4.2,0
		c0.4,0,1,0.2,1.2,0c0.3-0.2,0.4-0.8,0.6-1.2c0.1-0.2,0.1-0.4,0.2-0.6c0.2-0.4,0.1-0.7-0.4-0.9c-1.6-0.7-3.3-1.3-5-2.1
		C42.8,33.5,42.2,35,41.5,36.7z"/>
	<path d="M36.1,46.1c1.4,0,2.6,1.2,2.6,2.7c0,1.5-1.1,2.6-2.6,2.6c-1.6,0-2.6-1-2.6-2.6C33.5,47.2,34.4,46.2,36.1,46.1z"/>
	<path d="M43.2,56.5c-1.1,0-1.9-0.8-1.9-2c0-1.1,0.9-1.9,2-1.9c1.1,0,1.9,0.9,1.9,2C45.2,55.7,44.4,56.6,43.2,56.5z"/>
	<path d="M30.1,55.8c-1.1,0-1.9-0.9-1.8-2c0.1-1,0.9-1.9,1.9-1.9c1.1,0,1.9,0.9,1.9,2C32.1,54.9,31.5,56,30.1,55.8z"/>
	<path d="M47.1,46.1c0,1.2-0.7,1.9-1.8,1.9c-1.2,0-2-0.8-2-1.9c0-1.1,0.8-1.9,1.9-1.9C46.4,44.2,47.1,44.9,47.1,46.1z"/>
	<path d="M41.3,43.5c0,0.7-0.6,1.3-1.3,1.3c-0.7,0-1.2-0.6-1.2-1.3c0-0.8,0.6-1.3,1.3-1.3C40.8,42.2,41.3,42.8,41.3,43.5z"/>
	<path d="M49.1,59.2c0,0.7-0.6,1.3-1.3,1.3c-0.7,0-1.3-0.6-1.3-1.4c0-0.7,0.6-1.3,1.3-1.2C48.6,57.9,49.1,58.5,49.1,59.2z"/>
</g>
</svg>
