<?xml version="1.0" encoding="utf-8"?>
<!-- Generator: Adobe Illustrator 27.1.1, SVG Export Plug-In . SVG Version: 6.00 Build 0)  -->
<svg version="1.1" id="Capa_1" xmlns="http://www.w3.org/2000/svg" xmlns:xlink="http://www.w3.org/1999/xlink" x="0px" y="0px"
	 viewBox="0 0 80 80" style="enable-background:new 0 0 80 80;" xml:space="preserve">
<style type="text/css">
	.st0{fill:none;stroke:#000000;stroke-width:4;stroke-linecap:round;stroke-linejoin:round;stroke-miterlimit:10;}
	.st1{fill:none;stroke:#000000;stroke-width:6;stroke-linejoin:round;stroke-miterlimit:10;}
</style>
<path d="M45.2,39.6l19.5-19.4c0.8-0.8,0.8-2,0-2.8L63.3,16c-0.8-0.8-2-0.8-2.8,0L41,35.4L21.4,16c-0.8-0.8-2.1-0.8-2.8,0l-1.4,1.4
	c-0.8,0.8-0.8,2.1,0,2.8l19.5,19.4L17.2,59c-0.8,0.8-0.8,2,0,2.8l1.4,1.4c0.8,0.8,2,0.8,2.8,0L41,43.9l19.5,19.4
	c0.8,0.8,2.1,0.8,2.8,0l1.4-1.4c0.8-0.8,0.8-2.1,0-2.8L45.2,39.6z"/>
</svg>
